<svg xmlns="http://www.w3.org/2000/svg" viewBox="0 0 64 64" width="64" height="64">
  <defs>
    <clipPath id="a">
      <path d="M15 62V22C15 11 22.8 3 32 3s17 8 17 19v40z"/>
    </clipPath>
  </defs>
  
  <!-- Wall -->
  <rect width="64" height="64" fill="#6e6960"/>
  
  <g clip-path="url(#a)">
    <!-- Sky -->
    <rect x="15" y="3" width="34" height="59" fill="#e5dfd4"/>
    
    <!-- Clouds -->
    <ellipse cx="26" cy="16" rx="5" ry="2" fill="#cfc9be" opacity=".7"/>
    <ellipse cx="40" cy="12" rx="4" ry="1.5" fill="#cfc9be" opacity=".6"/>
    
    <!-- Distant mountains -->
    <path d="M15 36l6-5 5 3 6-4 6 5 5-3 6 4v8H15z" fill="#b0aa9c"/>
    
    <!-- Near hills -->
    <path d="M15 42q9-3 17-1t17 2v20H15z" fill="#98937e"/>
    
    <!-- Trees -->
    <polygon points="18,47 20.5,38 23,47" fill="#4a5640"/>
    <polygon points="24,48 27,37 30,48" fill="#3e4c36"/>
    <polygon points="34,47 36.5,39 39,47" fill="#4a5640"/>
    <polygon points="40,48 43,38 46,48" fill="#3e4c36"/>
    <polygon points="28,49 31,40 34,49" fill="#354430"/>
    
    <!-- Ledge/sill -->
    <rect x="15" y="48" width="34" height="16" fill="#807a6e"/>
    <line x1="15" y1="48" x2="49" y2="48" stroke="#6a6458" stroke-width=".8"/>
    
    <!-- Figure sitting from behind -->
    <!-- Legs crossed -->
    <path d="M27 54q2-1 5 0t5 0q-1 3-5 3t-5-3z" fill="#504a42"/>
    <path d="M26 54q1 1 3 1h6q2 0 3-1l1 4H25z" fill="#504a42"/>
    
    <!-- Torso (t-shirt) -->
    <path d="M27.5 45c.5-3 2-5 4.5-5s4 2 4.5 5v8h-9z" fill="#aba59a"/>
    
    <!-- Left arm -->
    <path d="M27 46l-2.5 5.5 1.5 1 2-4.5z" fill="#bab4a8"/>
    <!-- Right arm -->
    <path d="M37 46l2.5 5.5-1.5 1-2-4.5z" fill="#bab4a8"/>
    
    <!-- Head -->
    <circle cx="32" cy="38.5" r="4.2" fill="#332e28"/>
    <!-- Hair curls hint -->
    <circle cx="29.5" cy="36.5" r="1.5" fill="#2a2520"/>
    <circle cx="34.5" cy="36.5" r="1.5" fill="#2a2520"/>
    <circle cx="32" cy="35.5" r="1.8" fill="#2a2520"/>
    
    <!-- Neck -->
    <rect x="30.5" y="41.5" width="3" height="2" fill="#bab4a8"/>
  </g>
  
  <!-- Arch outline -->
  <path d="M15 62V22C15 11 22.8 3 32 3s17 8 17 19v40" fill="none" stroke="#3e3a34" stroke-width="1.5"/>
  
  <!-- Inner edge shadow -->
  <path d="M15 62V22C15 11 22.8 3 32 3s17 8 17 19v40" fill="none" stroke="#00000020" stroke-width="3"/>
</svg>